<svg width="859" height="108" viewBox="0 0 859 108" fill="none" xmlns="http://www.w3.org/2000/svg">
<path d="M102.006 5.19999V106H81.4141V43.36L55.3501 87.28H46.9981L20.9341 43.36V106H0.342063V5.19999H18.1981L51.3181 57.184L84.2941 5.19999H102.006ZM128.657 1.16799C135.281 1.16799 140.177 5.05599 140.177 12.112C140.177 19.024 135.281 23.056 128.657 23.056C122.177 23.056 117.137 19.024 117.137 12.112C117.137 5.05599 122.177 1.16799 128.657 1.16799ZM138.593 34V106H118.865V34H138.593ZM224.431 34L198.511 70L224.431 106H200.671L186.703 82.96L172.447 106H148.831L174.751 70L148.831 34H172.447L186.703 57.04L200.671 34H224.431ZM301.805 75.184H248.957C249.965 84.544 257.309 90.304 267.533 90.304C273.725 90.304 280.205 88.144 285.533 83.104L298.781 93.616C291.581 102.832 280.061 107.584 267.389 107.584C244.349 107.584 228.509 92.032 228.509 69.856C228.509 47.968 243.917 32.416 266.525 32.416C289.565 32.416 305.117 48.544 302.525 69.712L301.805 75.184ZM248.957 62.8H284.093C283.229 54.88 277.037 49.264 266.813 49.264C257.021 49.264 250.109 54.448 248.957 62.8ZM348.147 32.416C358.227 32.416 365.859 36.304 371.043 42.64V0.303996H390.915V106H374.643L372.627 94.912C367.299 102.832 359.091 107.584 348.291 107.584C327.987 107.584 313.587 92.464 313.587 70C313.587 47.536 327.987 32.416 348.147 32.416ZM352.467 50.56C341.235 50.56 333.459 58.336 333.459 70C333.459 81.664 341.235 89.44 352.467 89.44C363.411 89.44 371.619 82.096 371.619 70C371.619 57.904 363.411 50.56 352.467 50.56ZM509.397 5.19999V106H488.805V43.36L462.741 87.28H454.389L428.325 43.36V106H407.733V5.19999H425.589L458.709 57.184L491.685 5.19999H509.397ZM562.832 32.416C584.72 32.416 601.136 48.256 601.136 70.144C601.136 91.888 584.864 107.584 562.832 107.584C540.656 107.584 524.384 91.888 524.384 70C524.384 48.256 540.8 32.416 562.832 32.416ZM562.832 50.992C552.032 50.992 544.4 58.624 544.4 70C544.4 81.376 552.032 89.008 562.832 89.008C573.488 89.008 581.264 81.232 581.264 70C581.264 58.768 573.488 50.992 562.832 50.992ZM639.069 18.16V34H656.061V52.432H639.069V80.08C639.069 87.568 641.661 89.872 647.565 89.872C650.301 89.872 653.613 89.44 656.061 88.72V106.288C652.173 107.152 647.997 107.728 643.245 107.728C627.693 107.728 619.197 100.96 619.197 83.536V52.432H608.973V34H620.205L622.653 18.16H639.069ZM678.36 1.16799C684.984 1.16799 689.88 5.05599 689.88 12.112C689.88 19.024 684.984 23.056 678.36 23.056C671.88 23.056 666.84 19.024 666.84 12.112C666.84 5.05599 671.88 1.16799 678.36 1.16799ZM688.296 34V106H668.568V34H688.296ZM777.014 34L748.646 106H726.47L697.958 34H720.278L737.558 86.848L754.694 34H777.014ZM855.446 75.184H802.598C803.606 84.544 810.95 90.304 821.174 90.304C827.366 90.304 833.846 88.144 839.174 83.104L852.422 93.616C845.222 102.832 833.702 107.584 821.03 107.584C797.99 107.584 782.15 92.032 782.15 69.856C782.15 47.968 797.558 32.416 820.166 32.416C843.206 32.416 858.758 48.544 856.166 69.712L855.446 75.184ZM802.598 62.8H837.734C836.87 54.88 830.678 49.264 820.454 49.264C810.662 49.264 803.75 54.448 802.598 62.8Z" fill="white"/>
</svg>
